Coordinates
version=1
nRows=8
nColumns=63
inDegrees=yes

Units are S.I. units (second, meters, Newtons, ...)
If the header above contains a line with 'inDegrees', this indicates whether rotational values are in degrees (yes) or radians (no).

endheader
time	pelvis_tilt	pelvis_list	pelvis_rotation	pelvis_tx	pelvis_ty	pelvis_tz	hip_flexion_r	hip_adduction_r	hip_rotation_r	knee_angle_r	knee_angle_r_beta	ankle_angle_r	subtalar_angle_r	mtp_angle_r	hip_flexion_l	hip_adduction_l	hip_rotation_l	knee_angle_l	knee_angle_l_beta	ankle_angle_l	subtalar_angle_l	mtp_angle_l	L5_S1_Flex_Ext	L5_S1_Lat_Bending	L5_S1_axial_rotation	L4_L5_Flex_Ext	L4_L5_Lat_Bending	L4_L5_axial_rotation	L3_L4_Flex_Ext	L3_L4_Lat_Bending	L3_L4_axial_rotation	L2_L3_Flex_Ext	L2_L3_Lat_Bending	L2_L3_axial_rotation	L1_L2_Flex_Ext	L1_L2_Lat_Bending	L1_L2_axial_rotation	L1_T12_Flex_Ext	L1_T12_Lat_Bending	L1_T12_axial_rotation	Abs_r3	Abs_r2	Abs_r1	Abs_t1	Abs_t2	neck_flexion	neck_bending	neck_rotation	arm_flex_r	arm_add_r	arm_rot_r	elbow_flex_r	pro_sup_r	wrist_flex_r	wrist_dev_r	arm_flex_l	arm_add_l	arm_rot_l	elbow_flex_l	pro_sup_l	wrist_flex_l	wrist_dev_l
0.000000	5.615892	-5.324739	100.624960	0.223142	1.004250	0.401292	5.377521	4.186083	-9.002059	7.414848	0.129414	27.050901	-8.609260	0.000000	5.361154	-5.713283	12.618436	0.782125	0.013651	32.877886	1.276391	0.000000	0.185903	0.547829	-1.864036	0.345241	0.728613	-1.980538	0.305420	1.331992	-1.980538	0.212469	1.331992	-1.631031	0.172630	1.117133	-1.514529	0.106225	0.848587	-1.398027	1.327887	6.197154	-10.367208	0.000000	0.000000	27.738178	4.735283	12.065271	7.391382	-22.529434	47.743929	70.467591	41.879712	15.413186	6.207787	14.107790	-16.839332	56.705241	71.820010	81.705375	7.151827	1.391660
0.016667	5.470810	-5.316744	101.292608	0.222212	1.003880	0.401740	5.371744	3.894925	-9.992399	7.711824	0.134597	26.866496	-7.856732	0.000000	5.436660	-5.484710	12.166059	0.817457	0.014267	32.483473	2.824088	0.000000	0.188051	0.529059	-1.975586	0.349229	0.703648	-2.099060	0.308949	1.286354	-2.099060	0.214923	1.286354	-1.728637	0.174624	1.078857	-1.605163	0.107452	0.819512	-1.481689	1.343229	5.984819	-10.987615	0.000000	0.000000	27.688422	5.711598	13.179767	7.429274	-22.512237	47.498813	70.270497	42.159058	17.302320	8.172762	15.036753	-17.187366	58.624611	71.591864	77.852417	6.120160	0.073236
0.033333	5.365147	-5.314780	101.848336	0.221403	1.003596	0.402152	5.405367	3.660818	-10.794139	7.994155	0.139524	26.798142	-7.241350	0.000000	5.517735	-5.305230	11.847384	0.856039	0.014941	32.171099	4.003310	0.000000	0.190180	0.515895	-2.068093	0.353182	0.686140	-2.197349	0.312446	1.254347	-2.197349	0.217356	1.254347	-1.809581	0.176601	1.052013	-1.680326	0.108669	0.799121	-1.551070	1.358433	5.835905	-11.502113	0.000000	0.000000	27.650542	6.465212	14.066931	7.470819	-22.502330	47.271804	70.155860	42.330186	18.735852	9.618513	15.788614	-17.447835	60.095945	71.452364	74.780921	5.369490	-0.753847
0.050000	5.295417	-5.317478	102.299700	0.220714	1.003388	0.402523	5.472527	3.479673	-11.424817	8.261280	0.144187	26.832092	-6.748587	0.000000	5.601606	-5.171563	11.644075	0.896645	0.015649	31.932913	4.853287	0.000000	0.192227	0.507757	-2.142882	0.356984	0.675317	-2.276812	0.315809	1.234561	-2.276812	0.219696	1.234561	-1.875022	0.178502	1.035419	-1.741092	0.109838	0.786516	-1.607161	1.373056	5.743853	-11.918066	0.000000	0.000000	27.622918	7.018136	14.748824	7.515272	-22.497795	47.060449	70.116033	42.410301	19.753077	10.596379	16.373015	-17.629314	61.153017	71.394934	72.433585	4.873445	-1.143045
0.066667	5.258135	-5.323469	102.654258	0.220139	1.003250	0.402850	5.567360	3.347400	-11.901972	8.512633	0.148573	26.954603	-6.363913	0.000000	5.685498	-5.080433	11.537793	0.938051	0.016372	31.761066	5.413252	0.000000	0.194130	0.504067	-2.201277	0.360519	0.670409	-2.338856	0.318937	1.225588	-2.338856	0.221871	1.225588	-1.926117	0.180269	1.027893	-1.788537	0.110926	0.780800	-1.650957	1.386653	5.702106	-12.242840	0.000000	0.000000	27.603931	7.392377	15.247503	7.561888	-22.496713	46.862296	70.143367	42.416610	20.393285	11.157701	16.799597	-17.740379	61.829607	71.412996	70.753109	4.605651	-1.147813
0.083333	5.249816	-5.331382	102.919569	0.219677	1.003175	0.403129	5.684003	3.259908	-12.243141	8.747653	0.152675	27.151928	-6.072798	0.000000	5.766636	-5.028561	11.510199	0.979032	0.017087	31.647709	5.722436	0.000000	0.195828	0.504244	-2.244601	0.363672	0.670644	-2.384888	0.321726	1.226018	-2.384888	0.223812	1.226018	-1.964026	0.181846	1.028254	-1.823738	0.111896	0.781074	-1.683451	1.398780	5.704107	-12.483796	0.000000	0.000000	27.591960	7.609944	15.585027	7.609921	-22.497165	46.674891	70.230213	42.366317	20.695769	11.353819	17.078003	-17.789605	62.159490	71.499976	69.682191	4.539735	-0.821608
0.100000	5.266974	-5.339847	103.103189	0.219325	1.003154	0.403358	5.816590	3.213107	-12.465862	8.965775	0.156482	27.410322	-5.860714	0.000000	5.842244	-5.012670	11.542954	1.018364	0.017774	31.584992	5.820071	0.000000	0.197258	0.507708	-2.274179	0.366327	0.675252	-2.416315	0.324075	1.234442	-2.416315	0.225446	1.234442	-1.989906	0.183174	1.035318	-1.847770	0.112713	0.786440	-1.705634	1.408993	5.743296	-12.648299	0.000000	0.000000	27.585388	7.692846	15.783454	7.658626	-22.497232	46.495783	70.368922	42.276629	20.699821	11.236073	17.217875	-17.785567	62.176444	71.649296	69.163531	4.649324	-0.217884
0.116667	5.306123	-5.347495	103.212676	0.219080	1.003181	0.403532	5.959259	3.202908	-12.587674	9.166437	0.159985	27.716041	-5.713130	0.000000	5.909549	-5.029481	11.617721	1.054822	0.018410	31.565067	5.745388	0.000000	0.198357	0.513880	-2.291334	0.368370	0.683461	-2.434543	0.325881	1.249449	-2.434543	0.226703	1.249449	-2.004917	0.184195	1.047905	-1.861709	0.113341	0.796001	-1.718501	1.416847	5.813117	-12.743714	0.000000	0.000000	27.582593	7.663090	15.864843	7.707258	-22.494994	46.322518	70.551846	42.164750	20.444733	10.855804	17.228854	-17.736841	61.914245	71.854379	69.139828	4.908045	0.609903
